<svg width="104" height="56" viewBox="0 0 104 56" fill="none" xmlns="http://www.w3.org/2000/svg">
<path d="M53.5293 27.4432C53.0853 26.8523 52.8729 26.1541 52.9233 25.4512V22.5631C52.9233 21.6778 53.1242 21.005 53.5259 20.5447C53.9277 20.0844 54.6177 19.8552 55.596 19.8572C56.5153 19.8572 57.1679 20.0531 57.5537 20.4448C57.9746 20.9446 58.1794 21.5558 58.1325 22.1724V22.8511H56.488V22.1636C56.4939 21.9385 56.4779 21.7135 56.4404 21.4907C56.4167 21.3384 56.3339 21.1976 56.2055 21.0912C56.0366 20.9765 55.8239 20.9209 55.6096 20.9355C55.3843 20.921 55.1609 20.9796 54.9832 21.1C54.8399 21.2179 54.7444 21.3724 54.7108 21.5407C54.6636 21.7764 54.642 22.0154 54.6461 22.2546V25.7597C54.6202 26.0978 54.6927 26.4362 54.8572 26.7439C54.939 26.8481 55.0526 26.9306 55.1854 26.9825C55.3182 27.0343 55.465 27.0534 55.6096 27.0377C55.8203 27.0527 56.0293 26.9957 56.1918 26.8791C56.3258 26.7643 56.412 26.6145 56.437 26.4531C56.4754 26.2205 56.4925 25.9857 56.488 25.7509V25.0399H58.1325V25.6892C58.1787 26.3318 57.9789 26.9698 57.5639 27.5049C57.186 27.9338 56.5425 28.1483 55.596 28.1483C54.6495 28.1483 53.9345 27.9191 53.5293 27.4432Z" fill="#8E8F99"/>
<path d="M60.3763 27.4726C59.961 27.0231 59.7533 26.3679 59.7533 25.5012V22.4632C59.7533 21.6053 59.961 20.956 60.3763 20.5153C60.7917 20.0746 61.4863 19.8552 62.46 19.8572C63.4269 19.8572 64.1181 20.0766 64.5334 20.5153C64.9488 20.956 65.1599 21.6053 65.1599 22.4632V25.5012C65.1599 26.3591 64.9488 27.0172 64.5266 27.4696C64.1044 27.9221 63.4167 28.1483 62.46 28.1483C61.5033 28.1483 60.7951 27.9191 60.3763 27.4726ZM63.226 26.7439C63.3748 26.4624 63.4425 26.1539 63.4235 25.8449V22.1254C63.4426 21.8223 63.376 21.5198 63.2294 21.244C63.146 21.1376 63.0296 21.0537 62.8936 21.0018C62.7575 20.9498 62.6073 20.9319 62.46 20.9502C62.3123 20.9324 62.1617 20.9505 62.0252 21.0024C61.8887 21.0543 61.7717 21.1379 61.6871 21.244C61.5374 21.519 61.4695 21.822 61.4897 22.1254V25.8625C61.469 26.1717 61.5368 26.4804 61.6871 26.7616C61.783 26.8563 61.9013 26.9323 62.034 26.9843C62.1667 27.0364 62.3108 27.0633 62.4566 27.0633C62.6024 27.0633 62.7465 27.0364 62.8792 26.9843C63.0119 26.9323 63.1302 26.8563 63.226 26.7616V26.7439Z" fill="#8E8F99"/>
<path d="M67.1378 19.946H68.9083L70.2395 25.5511L71.6014 19.946H73.3242L73.4978 28.0364H72.2244L72.0883 22.4136L70.774 28.0364H69.7526L68.3907 22.3931L68.2648 28.0364H66.9778L67.1378 19.946Z" fill="#8E8F99"/>
<path d="M75.4829 19.946H78.2406C79.8295 19.946 80.6239 20.7117 80.6239 22.2432C80.6239 23.7101 79.7875 24.4426 78.1147 24.4406H77.175V28.0364H75.4727L75.4829 19.946ZM77.8389 23.4036C78.0071 23.422 78.1779 23.4087 78.3396 23.3646C78.5012 23.3205 78.6499 23.2466 78.7752 23.148C78.9704 22.8748 79.0565 22.5539 79.0203 22.2344C79.0292 21.9876 79.0018 21.7408 78.9386 21.5C78.9143 21.4196 78.8717 21.3441 78.8133 21.278C78.7548 21.2119 78.6817 21.1566 78.5981 21.1152C78.3618 21.0173 78.1006 20.9729 77.8389 20.9859H77.1784V23.4036H77.8389Z" fill="#8E8F99"/>
<path d="M83.0787 19.946H84.907L86.783 28.0364H85.1964L84.8253 26.1709H83.1945L82.8132 28.0364H81.2028L83.0787 19.946ZM84.6415 25.2338L84.0048 21.8378L83.3681 25.2338H84.6415Z" fill="#8E8F99"/>
<path d="M88.2981 19.946H89.4897L91.7709 24.5611V19.946H93.1838V28.0364H92.0501L89.7553 23.2186V28.0364H88.2947L88.2981 19.946Z" fill="#8E8F99"/>
<path d="M96.4932 24.9515L94.5968 19.9572H96.1936L97.3512 23.1653L98.4373 19.9572H100L98.1274 24.9515V28.0363H96.4932V24.9515Z" fill="#8E8F99"/>
<path d="M56.1579 31.5736V31.9966H54.7688V35.2841H54.1866V31.9966H52.7906V31.5736H56.1579Z" fill="#8E8F99"/>
<path d="M60.5123 35.2844H60.0629C60.0173 35.2869 59.9722 35.2743 59.9369 35.2492C59.9029 35.2276 59.8769 35.198 59.862 35.164L59.4603 34.2827H57.5332L57.1314 35.164C57.12 35.2008 57.0991 35.235 57.0702 35.2639C57.0345 35.2885 56.9897 35.301 56.9442 35.2991H56.4948L58.1971 31.5887H58.7895L60.5123 35.2844ZM57.6932 33.9066H59.3003L58.6193 32.3966C58.5691 32.2824 58.527 32.1657 58.4933 32.047C58.4695 32.1175 58.4491 32.1851 58.4286 32.2438L58.3674 32.3995L57.6932 33.9066Z" fill="#8E8F99"/>
<path d="M63.4472 34.9201C63.5538 34.9249 63.6606 34.9249 63.7672 34.9201C63.8593 34.9119 63.9504 34.8972 64.0396 34.876C64.123 34.8584 64.2049 34.8358 64.2848 34.8084C64.3597 34.782 64.4346 34.7497 64.5129 34.7174V33.8829H63.8319C63.8151 33.8837 63.7982 33.8816 63.7824 33.8765C63.7666 33.8714 63.7522 33.8636 63.74 33.8535C63.7288 33.8452 63.72 33.8348 63.7141 33.8231C63.7082 33.8114 63.7054 33.7987 63.706 33.7859V33.5009H65.027V34.923C64.9192 34.9896 64.8053 35.0485 64.6865 35.0993C64.5651 35.151 64.4386 35.1933 64.3086 35.2257C64.1694 35.261 64.027 35.2865 63.883 35.302C63.7179 35.3179 63.552 35.3257 63.3859 35.3256C63.0923 35.3277 62.8009 35.2808 62.5279 35.1875C62.273 35.099 62.0414 34.9671 61.847 34.7996C61.6574 34.6304 61.5082 34.4308 61.4078 34.212C61.3005 33.966 61.2474 33.705 61.2512 33.4422C61.2476 33.1778 61.2995 32.915 61.4044 32.6665C61.5023 32.4466 61.6518 32.2465 61.8436 32.0789C62.0379 31.9119 62.2696 31.781 62.5245 31.694C62.8161 31.5993 63.1255 31.5525 63.437 31.5559C63.5955 31.5557 63.7537 31.5665 63.9102 31.5882C64.0486 31.6077 64.1844 31.6392 64.3154 31.6822C64.4345 31.7208 64.5486 31.7701 64.6559 31.8291C64.7602 31.8871 64.8593 31.9519 64.9521 32.023L64.7887 32.2522C64.7759 32.2732 64.7568 32.2907 64.7334 32.3031C64.7101 32.3155 64.6833 32.3223 64.6559 32.3227C64.6182 32.3217 64.5816 32.3115 64.5503 32.2934C64.4993 32.2699 64.4448 32.2405 64.3835 32.2052C64.3111 32.166 64.2348 32.1326 64.1554 32.1053C64.0539 32.0702 63.9491 32.0427 63.8421 32.023C63.6995 32.0004 63.5547 31.9896 63.4097 31.9907C63.1851 31.9886 62.9621 32.0235 62.7526 32.0936C62.5632 32.1591 62.3924 32.2594 62.2522 32.3874C62.1111 32.5208 62.0033 32.6778 61.9355 32.8487C61.7834 33.2505 61.7834 33.6838 61.9355 34.0856C62.01 34.2601 62.126 34.4193 62.276 34.5528C62.4156 34.6801 62.5851 34.7803 62.7731 34.8466C62.9896 34.9108 63.219 34.9358 63.4472 34.9201Z" fill="#8E8F99"/>
<path d="M68.8744 34.8611H70.7334V35.2841H68.3058V31.5736H68.888L68.8744 34.8611Z" fill="#8E8F99"/>
<path d="M72.6672 35.2841H72.085V31.5736H72.6672V35.2841Z" fill="#8E8F99"/>
<path d="M74.8325 31.5912C74.8671 31.6082 74.8973 31.6312 74.9211 31.6588L77.4098 34.4558C77.4065 34.4118 77.4065 34.3676 77.4098 34.3236C77.4098 34.2825 77.4098 34.2414 77.4098 34.2032V31.5589H77.9171V35.2844H77.6243C77.581 35.2874 77.5374 35.2803 77.4984 35.2638C77.463 35.2453 77.4319 35.2214 77.4064 35.1933L74.9211 32.3992C74.9211 32.4432 74.9211 32.4844 74.9211 32.5255C74.9211 32.5666 74.9211 32.6048 74.9211 32.6401V35.2844H74.4342V31.5736H74.7372C74.7701 31.5736 74.8025 31.5796 74.8325 31.5912Z" fill="#8E8F99"/>
<path d="M82.2037 31.5736V31.9819H80.1405V33.2071H81.8122V33.6007H80.1405V34.867H82.2037V35.2754H79.5413V31.5736H82.2037Z" fill="#8E8F99"/>
<path d="M21.1952 8.65865L47.047 14.9927V37.1883L21.1952 30.8572V8.65865ZM19.5371 6.76667V31.9354L48.7017 39.0832V13.9174L19.5371 6.76667Z" fill="#8E8F99"/>
<path d="M35.168 50.7667L6 43.6129V18.4468L35.168 25.5977V50.7667Z" fill="#8E8F99"/>
<path d="M20.0205 8.37365L45.5352 14.6283L34.6845 23.994L9.16636 17.7365L20.0205 8.37365ZM19.537 6.76667L6 18.4474L35.168 25.598L48.7016 13.9173L19.537 6.76667Z" fill="#8E8F99"/>
<path d="M36.8091 49.3508L48.7016 39.0862L36.8091 36.169V49.3508Z" fill="#8E8F99"/>
</svg>
