<svg width="104" height="56" viewBox="0 0 104 56" fill="none" xmlns="http://www.w3.org/2000/svg">
<path d="M36.8098 49.2233C36.8259 49.2237 36.8418 49.2268 36.8565 49.2325C36.8712 49.2381 36.8844 49.2462 36.8954 49.2563L37.1162 49.4639C36.9448 49.6319 36.733 49.7663 36.4951 49.8578C36.2167 49.9577 35.9165 50.0059 35.6146 49.9993C35.3309 50.0043 35.049 49.9594 34.7865 49.8672C34.5497 49.7826 34.337 49.6555 34.1626 49.4946C33.9848 49.3276 33.8477 49.1319 33.7596 48.919C33.6632 48.6817 33.6155 48.4319 33.6189 48.1807C33.6149 47.9279 33.6664 47.6767 33.7707 47.44C33.8671 47.2258 34.0126 47.0301 34.1985 46.8645C34.387 46.7021 34.6125 46.5744 34.861 46.4894C35.1329 46.3994 35.4224 46.3545 35.714 46.3574C35.9848 46.3517 36.2542 46.3926 36.5062 46.4777C36.7248 46.5587 36.9255 46.6712 37.0997 46.8102L36.9147 47.032C36.9019 47.0476 36.8861 47.0612 36.8678 47.0721C36.846 47.0848 36.8196 47.0907 36.7933 47.0886C36.7646 47.0869 36.737 47.0787 36.7132 47.065L36.6138 47.006L36.4758 46.9305C36.4162 46.9025 36.3544 46.8781 36.2909 46.8574C36.209 46.8324 36.125 46.8127 36.0397 46.7984C35.9314 46.7814 35.8213 46.7735 35.7112 46.7749C35.5012 46.7726 35.2929 46.8063 35.0984 46.8739C34.917 46.9366 34.7533 47.0315 34.6181 47.1523C34.4805 47.2808 34.3744 47.4316 34.3062 47.5957C34.2284 47.7835 34.1901 47.9815 34.193 48.1807C34.1897 48.383 34.228 48.5842 34.3062 48.7751C34.3735 48.9379 34.4776 49.0877 34.6126 49.2162C34.739 49.336 34.8957 49.4296 35.0708 49.4898C35.251 49.5537 35.4444 49.5858 35.6394 49.5842C35.7521 49.5857 35.8647 49.5794 35.9762 49.5653C36.1582 49.5463 36.3328 49.4923 36.4869 49.4073C36.5641 49.3637 36.6371 49.3148 36.7049 49.261C36.7333 49.2379 36.7706 49.2245 36.8098 49.2233Z" fill="#8E8F99"/>
<path d="M43.1862 48.1803C43.1896 48.4305 43.1391 48.6792 43.0371 48.9138C42.9472 49.1266 42.8055 49.3207 42.6213 49.4834C42.4372 49.646 42.2148 49.7734 41.9689 49.8573C41.4285 50.0334 40.8311 50.0334 40.2906 49.8573C40.0462 49.7721 39.8253 49.6444 39.6419 49.4822C39.4579 49.3167 39.3152 49.1209 39.2224 48.9067C39.0235 48.4317 39.0235 47.9124 39.2224 47.4373C39.3165 47.2231 39.4591 47.0267 39.6419 46.8595C39.8269 46.7024 40.0477 46.5796 40.2906 46.4986C40.8304 46.3193 41.4291 46.3193 41.9689 46.4986C42.2141 46.5837 42.4359 46.7114 42.6203 46.8736C42.802 47.0376 42.9437 47.2308 43.0371 47.442C43.1394 47.6782 43.1899 47.9285 43.1862 48.1803ZM42.6065 48.1803C42.6109 47.9801 42.5754 47.7807 42.5016 47.5906C42.4398 47.4278 42.3392 47.2777 42.2063 47.1496C42.0769 47.0284 41.9175 46.9333 41.7398 46.8713C41.3471 46.7423 40.9124 46.7423 40.5197 46.8713C40.342 46.9333 40.1827 47.0284 40.0532 47.1496C39.9184 47.2769 39.8168 47.4272 39.7551 47.5906C39.6147 47.9746 39.6147 48.386 39.7551 48.7699C39.8174 48.9331 39.919 49.0833 40.0532 49.211C40.1828 49.3315 40.3422 49.4257 40.5197 49.487C40.9131 49.6126 41.3464 49.6126 41.7398 49.487C41.9173 49.4257 42.0767 49.3315 42.2063 49.211C42.3386 49.0826 42.4391 48.9325 42.5016 48.7699C42.5757 48.5799 42.6112 48.3805 42.6065 48.1803Z" fill="#8E8F99"/>
<path d="M47.5365 48.7987L47.5945 48.9308C47.6166 48.8836 47.6359 48.8411 47.658 48.7987C47.679 48.7543 47.703 48.711 47.7297 48.669L49.1403 46.4781C49.1679 46.4404 49.1927 46.4168 49.2203 46.4097C49.2579 46.3999 49.2971 46.396 49.3363 46.3979H49.7531V49.9613H49.259V47.3412C49.259 47.3082 49.259 47.2705 49.259 47.2304C49.2563 47.1896 49.2563 47.1486 49.259 47.1078L47.8402 49.3293C47.8221 49.3626 47.7933 49.3907 47.7571 49.4104C47.7209 49.43 47.6788 49.4404 47.6359 49.4402H47.5558C47.5129 49.4407 47.4706 49.4305 47.4344 49.4108C47.3981 49.3911 47.3693 49.3628 47.3516 49.3293L45.8914 47.0936C45.8914 47.1361 45.8914 47.1785 45.8914 47.221C45.8914 47.2634 45.8914 47.3012 45.8914 47.3342V49.9543H45.4138V46.3979H45.8306C45.8698 46.396 45.909 46.3999 45.9466 46.4097C45.9808 46.4242 46.0081 46.4484 46.0239 46.4781L47.4648 48.6713C47.4931 48.7119 47.5171 48.7545 47.5365 48.7987Z" fill="#8E8F99"/>
<path d="M52.8447 48.6216V49.9564H52.2926V46.3978H53.5237C53.7561 46.394 53.9878 46.4202 54.211 46.4756C54.3897 46.5189 54.5554 46.5945 54.6969 46.6973C54.8195 46.7937 54.914 46.9132 54.9729 47.0463C55.0381 47.1915 55.0699 47.346 55.0667 47.5015C55.0692 47.6575 55.0344 47.8124 54.9646 47.9566C54.8983 48.0931 54.7963 48.2149 54.6665 48.3127C54.5249 48.4198 54.3584 48.5002 54.1779 48.5485C53.963 48.6072 53.7382 48.6351 53.5127 48.6311L52.8447 48.6216ZM52.8447 48.2396H53.5127C53.6578 48.2412 53.8022 48.2229 53.9405 48.1854C54.0546 48.1526 54.1598 48.1004 54.2497 48.0321C54.3326 47.9668 54.3968 47.8861 54.4374 47.7962C54.4826 47.7012 54.5051 47.5993 54.5036 47.4967C54.5101 47.3978 54.4912 47.2989 54.4483 47.2068C54.4054 47.1148 54.3395 47.0318 54.2552 46.9638C54.0443 46.8231 53.7794 46.755 53.5127 46.7728H52.8447V48.2396Z" fill="#8E8F99"/>
<path d="M60.2645 49.9612H59.8283C59.7846 49.9627 59.7416 49.951 59.7069 49.9282C59.6756 49.906 59.651 49.8777 59.6351 49.8457L59.2597 48.9848H57.3744L56.9852 49.8457C56.9709 49.8771 56.9471 49.9048 56.9162 49.9258C56.8811 49.95 56.837 49.9626 56.792 49.9612H56.3558L58.012 46.3974H58.5862L60.2645 49.9612ZM57.5317 48.6381H59.0886L58.4316 47.1875C58.3814 47.0784 58.3399 46.9665 58.3074 46.8526L58.2439 47.039C58.2246 47.0956 58.2025 47.1475 58.1832 47.1899L57.5317 48.6381Z" fill="#8E8F99"/>
<path d="M62.6495 46.414C62.6825 46.4295 62.7109 46.4513 62.7323 46.4777L65.1476 49.1641C65.1476 49.1216 65.1476 49.0792 65.1476 49.0391C65.1476 48.999 65.1476 48.9589 65.1476 48.9211V46.3975H65.6417V49.9612H65.3657C65.3265 49.9623 65.2876 49.955 65.2525 49.94C65.2184 49.923 65.1884 49.9006 65.1642 49.874L62.7517 47.19C62.7543 47.2308 62.7543 47.2718 62.7517 47.3126C62.7517 47.3527 62.7517 47.3881 62.7517 47.4211V49.9612H62.2576V46.3975H62.5502C62.5843 46.3967 62.6182 46.4023 62.6495 46.414Z" fill="#8E8F99"/>
<path d="M69.7104 48.5438V49.9589H69.1583V48.5438L67.6318 46.3975H68.1259C68.1685 46.3954 68.2106 46.4062 68.2446 46.4282C68.2747 46.4511 68.2999 46.4782 68.3192 46.5084L69.2743 47.8928C69.3129 47.9518 69.346 48.006 69.3736 48.0579C69.4012 48.1098 69.4233 48.1593 69.4426 48.2089L69.5144 48.0556C69.5412 47.9995 69.5726 47.9451 69.6083 47.8928L70.5495 46.4989C70.5693 46.4711 70.5935 46.4457 70.6213 46.4235C70.6541 46.399 70.6966 46.3864 70.74 46.3881H71.2396L69.7104 48.5438Z" fill="#8E8F99"/>
<path d="M47.2632 40.417C47.5033 40.4429 47.7462 40.4642 47.9919 40.483C51.7165 39.0595 54.8673 36.7295 57.0506 33.7844C59.2338 30.8393 60.3527 27.4097 60.2672 23.9243L56.1626 20.4172C56.9972 24.1281 56.6068 27.9642 55.0351 31.4963C53.4634 35.0284 50.7724 38.1171 47.2632 40.417Z" fill="#8E8F99"/>
<path d="M45.7975 40.2538L45.9079 40.2727C49.6578 37.981 52.5168 34.7808 54.1151 31.086C55.7135 27.3912 55.9776 23.3716 54.8735 19.5472L49.0271 14.5521C51.3918 18.6579 52.3436 23.253 51.7719 27.8028C51.2002 32.3527 49.1284 36.6704 45.7975 40.2538Z" fill="#8E8F99"/>
<path d="M65.6251 28.0424C64.6318 31.872 62.2195 35.3259 58.7463 37.8911C57.7319 38.6444 56.6378 39.3156 55.478 39.8958C58.3062 39.1856 60.9057 37.9299 63.0761 36.2256C65.2465 34.5213 66.9298 32.4139 67.9962 30.0659L65.6251 28.0424Z" fill="#8E8F99"/>
<path d="M64.6948 27.4784L61.3189 24.5941C61.2544 27.8826 60.1602 31.0963 58.15 33.9013C56.1399 36.7063 53.2871 39 49.8883 40.5442H49.9049C50.6623 40.544 51.419 40.5054 52.1711 40.4287C55.3475 39.321 58.1535 37.5587 60.3388 35.299C62.524 33.0393 64.0206 30.3525 64.6948 27.4784Z" fill="#8E8F99"/>
<path d="M46.2861 12.4457L42.2587 9C38.6584 10.1887 35.562 12.2784 33.3747 14.9955C31.1875 17.7127 30.0112 20.9308 30 24.2285V24.2285C30.0135 27.8725 31.449 31.4085 34.0793 34.2769C36.7096 37.1454 40.3845 39.1824 44.5222 40.0656C48.216 36.2205 50.3786 31.4693 50.6958 26.5023C51.013 21.5353 49.4683 16.6113 46.2861 12.4457Z" fill="#8E8F99"/>
<path d="M74 26.9478C73.9854 22.6244 71.9689 18.4817 68.3908 15.4247C64.8127 12.3676 59.964 10.6446 54.9039 10.6322C52.5657 10.6301 50.2473 10.9988 48.0665 11.7194L72.7247 32.7872C73.569 30.9249 74.0015 28.9449 74 26.9478Z" fill="#8E8F99"/>
</svg>
